<svg width="512" height="512" xmlns="http://www.w3.org/2000/svg" xmlns:svg="http://www.w3.org/2000/svg">
 <defs>
  <style>.cls-1{fill:#00f26d;}.cls-2{fill:#231f20;}</style>
 </defs>
 <title>share-my-location-My Location</title>
 <g>
  <title>Layer 1</title>
  <path id="svg_1" d="m410.99,301.19a10.92,10.92 0 0 0 -2.48,-11.95l-11.41,-11.24l-42.55,-41.91a113.87,113.87 0 1 0 -44.76,46l57.13,56l6.13,6a11,11 0 0 0 15.59,-0.16a10.15,10.15 0 0 0 1.37,-1.69c-32.23,57.13 -79.11,117.85 -128.58,166.63a11.1,11.1 0 0 1 -7.74,3.13a10.88,10.88 0 0 1 -7.71,-3.17c-89.08,-87.83 -178.98,-221.54 -178.98,-322.11c0,-102.95 83.77,-186.72 186.69,-186.72s186.69,83.77 186.69,186.72c0,33.18 -9.88,71.71 -29.39,114.47z" class="cls-1" fill="black"/>
  <path id="svg_2" d="m391.81,336.22a9.34,9.34 0 0 1 -0.12,1.78a9,9 0 0 1 -0.63,2.32a3.48,3.48 0 0 1 -0.32,0.64a2,2 0 0 1 -0.26,0.58a5.2,5.2 0 0 1 -0.43,0.69a10.15,10.15 0 0 1 -1.37,1.69a11,11 0 0 1 -15.59,0.16l-6.13,-6c1.48,-2.43 2.85,-4.86 4.23,-7.29a11,11 0 0 1 15,-4.17a10.05,10.05 0 0 1 2.37,1.79a7.43,7.43 0 0 1 1.11,1.22a5.84,5.84 0 0 1 0.59,1a8,8 0 0 1 0.74,1.38a10.7,10.7 0 0 1 0.58,1.79c0.05,0.22 0.05,0.43 0.1,0.64a9.85,9.85 0 0 1 0.13,1.78z" class="cls-2"/>
  <path id="svg_3" d="m410.99,301.19a2.47,2.47 0 0 1 -0.26,0.58a4.68,4.68 0 0 1 -0.74,1.32l0,0.05a21,21 0 0 1 -1.32,1.64l-0.05,0.05c-0.06,0.06 -0.11,0.11 -0.16,0.11a9.14,9.14 0 0 1 -1.32,1.11a2,2 0 0 1 -0.53,0.37a9.85,9.85 0 0 1 -1.69,0.84a6.86,6.86 0 0 1 -1.91,0.58c-0.05,0.06 -0.15,0.06 -0.31,0.06a8.17,8.17 0 0 1 -2,0.21a8.64,8.64 0 0 1 -2,-0.21a0.57,0.57 0 0 1 -0.31,-0.06a8.14,8.14 0 0 1 -1.64,-0.47a0.26,0.26 0 0 1 -0.16,-0.11l-0.48,-0.15c-0.05,-0.06 -0.1,-0.06 -0.15,-0.11a5.25,5.25 0 0 1 -1.22,-0.69l-0.05,0a12.82,12.82 0 0 1 -1.69,-1.37l-0.69,-0.69a11.09,11.09 0 0 1 -1.59,-11.73c2.22,-4.92 4.34,-9.73 6.35,-14.53l11.41,11.25a10.92,10.92 0 0 1 2.51,11.95z" class="cls-2"/>
  <path id="svg_4" d="m410.99,301.19a2.47,2.47 0 0 1 -0.26,0.58a4.68,4.68 0 0 1 -0.74,1.32l0,0.05a21,21 0 0 1 -1.32,1.64l-0.05,0.05c-0.06,0.06 -0.11,0.11 -0.16,0.11a9.14,9.14 0 0 1 -1.32,1.11a2,2 0 0 1 -0.53,0.37a9.85,9.85 0 0 1 -1.69,0.84a6.86,6.86 0 0 1 -1.91,0.58c-0.05,0.06 -0.15,0.06 -0.31,0.06a8.17,8.17 0 0 1 -2,0.21a8.64,8.64 0 0 1 -2,-0.21a0.57,0.57 0 0 1 -0.31,-0.06a8.14,8.14 0 0 1 -1.64,-0.47a0.26,0.26 0 0 1 -0.16,-0.11l-0.48,-0.15c-0.05,-0.06 -0.1,-0.06 -0.15,-0.11a5.25,5.25 0 0 1 -1.22,-0.69l-0.05,0a12.82,12.82 0 0 1 -1.69,-1.37l-0.69,-0.69l-59.32,-58.45a11,11 0 0 1 -1.53,-13.8a92,92 0 1 0 -26.32,27.06a11,11 0 0 1 13.9,1.21l69.44,68c0,0.05 0,0.05 0,0.1a7.43,7.43 0 0 1 1.11,1.22a5.84,5.84 0 0 1 0.59,1a8,8 0 0 1 0.74,1.38a10.7,10.7 0 0 1 0.58,1.79c0.05,0.22 0.05,0.43 0.1,0.64a9.85,9.85 0 0 1 0.16,1.79a9.34,9.34 0 0 1 -0.07,1.81a9,9 0 0 1 -0.63,2.32a3.48,3.48 0 0 1 -0.32,0.64a2,2 0 0 1 -0.26,0.58a5.2,5.2 0 0 1 -0.43,0.69a10.15,10.15 0 0 1 -1.37,1.69a11,11 0 0 1 -15.59,0.16l-6.13,-6l-57.13,-56a114.29,114.29 0 1 1 44.76,-46l42.51,41.92l11.41,11.25a10.92,10.92 0 0 1 2.48,11.94z" class="cls-2"/>
  <path fill="#ffd051" id="svg_5" d="m312.69,193.69a11,11 0 0 1 -11,-11a48,48 0 0 0 -48,-48a11,11 0 0 1 0,-22a70.1,70.1 0 0 1 70,70a11,11 0 0 1 -11,11z"/>
 </g>
</svg>
